<svg xmlns="http://www.w3.org/2000/svg" xmlns:xlink="http://www.w3.org/1999/xlink" width="500" zoomAndPan="magnify" viewBox="0 0 375 374.999991" height="500" preserveAspectRatio="xMidYMid meet" version="1.0"><defs><clipPath id="afb9f0e257"><path d="M 0 2.019531 L 42 2.019531 L 42 44 L 0 44 Z M 0 2.019531 " clip-rule="nonzero"/></clipPath><clipPath id="2fe041a6af"><path d="M 9.136719 32.785156 L 19.425781 32.785156 L 19.425781 43.074219 L 9.136719 43.074219 Z M 9.136719 32.785156 " clip-rule="nonzero"/></clipPath><clipPath id="5c45e18795"><path d="M 0.898438 22.773438 C 0.898438 11.566406 9.984375 2.480469 21.191406 2.480469 C 32.402344 2.480469 41.488281 11.566406 41.488281 22.773438 C 41.488281 33.984375 32.402344 43.070312 21.191406 43.070312 C 9.984375 43.070312 0.898438 33.984375 0.898438 22.773438 " clip-rule="nonzero"/></clipPath><clipPath id="4a8036a093"><path d="M 23.101562 32.785156 L 33.390625 32.785156 L 33.390625 43.074219 L 23.101562 43.074219 Z M 23.101562 32.785156 " clip-rule="nonzero"/></clipPath><clipPath id="cf31ae2866"><path d="M 0.898438 22.773438 C 0.898438 11.566406 9.984375 2.480469 21.191406 2.480469 C 32.402344 2.480469 41.488281 11.566406 41.488281 22.773438 C 41.488281 33.984375 32.402344 43.070312 21.191406 43.070312 C 9.984375 43.070312 0.898438 33.984375 0.898438 22.773438 " clip-rule="nonzero"/></clipPath><clipPath id="dc57182c20"><path d="M 26.09375 34.882812 L 33.390625 34.882812 L 33.390625 41.339844 L 26.09375 41.339844 Z M 26.09375 34.882812 " clip-rule="nonzero"/></clipPath><clipPath id="559126f313"><path d="M 0.898438 22.773438 C 0.898438 11.566406 9.984375 2.480469 21.191406 2.480469 C 32.402344 2.480469 41.488281 11.566406 41.488281 22.773438 C 41.488281 33.984375 32.402344 43.070312 21.191406 43.070312 C 9.984375 43.070312 0.898438 33.984375 0.898438 22.773438 " clip-rule="nonzero"/></clipPath><clipPath id="e42d27051c"><path d="M 9.1875 35.304688 L 16 35.304688 L 16 41.394531 L 9.1875 41.394531 Z M 9.1875 35.304688 " clip-rule="nonzero"/></clipPath><clipPath id="aeb7d00131"><path d="M 0.898438 22.773438 C 0.898438 11.566406 9.984375 2.480469 21.191406 2.480469 C 32.402344 2.480469 41.488281 11.566406 41.488281 22.773438 C 41.488281 33.984375 32.402344 43.070312 21.191406 43.070312 C 9.984375 43.070312 0.898438 33.984375 0.898438 22.773438 " clip-rule="nonzero"/></clipPath><clipPath id="94478df1b5"><path d="M 9.609375 31.367188 L 32.8125 31.367188 L 32.8125 43.074219 L 9.609375 43.074219 Z M 9.609375 31.367188 " clip-rule="nonzero"/></clipPath><clipPath id="b56f9f4c2e"><path d="M 0.898438 22.773438 C 0.898438 11.566406 9.984375 2.480469 21.191406 2.480469 C 32.402344 2.480469 41.488281 11.566406 41.488281 22.773438 C 41.488281 33.984375 32.402344 43.070312 21.191406 43.070312 C 9.984375 43.070312 0.898438 33.984375 0.898438 22.773438 " clip-rule="nonzero"/></clipPath><clipPath id="80e606e6ce"><path d="M 16.957031 31.367188 L 25.460938 31.367188 L 25.460938 34.832031 L 16.957031 34.832031 Z M 16.957031 31.367188 " clip-rule="nonzero"/></clipPath><clipPath id="5bc3794dca"><path d="M 0.898438 22.773438 C 0.898438 11.566406 9.984375 2.480469 21.191406 2.480469 C 32.402344 2.480469 41.488281 11.566406 41.488281 22.773438 C 41.488281 33.984375 32.402344 43.070312 21.191406 43.070312 C 9.984375 43.070312 0.898438 33.984375 0.898438 22.773438 " clip-rule="nonzero"/></clipPath><clipPath id="95ebbb79db"><path d="M 16 35.144531 L 26.460938 35.144531 L 26.460938 37.980469 L 16 37.980469 Z M 16 35.144531 " clip-rule="nonzero"/></clipPath><clipPath id="d6eb7c0610"><path d="M 0.898438 22.773438 C 0.898438 11.566406 9.984375 2.480469 21.191406 2.480469 C 32.402344 2.480469 41.488281 11.566406 41.488281 22.773438 C 41.488281 33.984375 32.402344 43.070312 21.191406 43.070312 C 9.984375 43.070312 0.898438 33.984375 0.898438 22.773438 " clip-rule="nonzero"/></clipPath><clipPath id="a883bbe8a6"><path d="M 9.609375 10.472656 L 32.8125 10.472656 L 32.8125 33.675781 L 9.609375 33.675781 Z M 9.609375 10.472656 " clip-rule="nonzero"/></clipPath><clipPath id="03330a3454"><path d="M 0.898438 22.773438 C 0.898438 11.566406 9.984375 2.480469 21.191406 2.480469 C 32.402344 2.480469 41.488281 11.566406 41.488281 22.773438 C 41.488281 33.984375 32.402344 43.070312 21.191406 43.070312 C 9.984375 43.070312 0.898438 33.984375 0.898438 22.773438 " clip-rule="nonzero"/></clipPath><clipPath id="f833b8943a"><path d="M 10.449219 24.488281 L 31.972656 24.488281 L 31.972656 33.675781 L 10.449219 33.675781 Z M 10.449219 24.488281 " clip-rule="nonzero"/></clipPath><clipPath id="e9b3fdb537"><path d="M 0.898438 22.773438 C 0.898438 11.566406 9.984375 2.480469 21.191406 2.480469 C 32.402344 2.480469 41.488281 11.566406 41.488281 22.773438 C 41.488281 33.984375 32.402344 43.070312 21.191406 43.070312 C 9.984375 43.070312 0.898438 33.984375 0.898438 22.773438 " clip-rule="nonzero"/></clipPath><clipPath id="840ae9c6f5"><path d="M 16.800781 38.664062 L 25.621094 38.664062 L 25.621094 43.074219 L 16.800781 43.074219 Z M 16.800781 38.664062 " clip-rule="nonzero"/></clipPath><clipPath id="1ea3ca6587"><path d="M 0.898438 22.773438 C 0.898438 11.566406 9.984375 2.480469 21.191406 2.480469 C 32.402344 2.480469 41.488281 11.566406 41.488281 22.773438 C 41.488281 33.984375 32.402344 43.070312 21.191406 43.070312 C 9.984375 43.070312 0.898438 33.984375 0.898438 22.773438 " clip-rule="nonzero"/></clipPath><clipPath id="46d240b464"><path d="M 17.535156 39.398438 L 24.886719 39.398438 L 24.886719 43.074219 L 17.535156 43.074219 Z M 17.535156 39.398438 " clip-rule="nonzero"/></clipPath><clipPath id="e637e3e70c"><path d="M 0.898438 22.773438 C 0.898438 11.566406 9.984375 2.480469 21.191406 2.480469 C 32.402344 2.480469 41.488281 11.566406 41.488281 22.773438 C 41.488281 33.984375 32.402344 43.070312 21.191406 43.070312 C 9.984375 43.070312 0.898438 33.984375 0.898438 22.773438 " clip-rule="nonzero"/></clipPath><clipPath id="0585dc90ff"><path d="M 12.863281 13.726562 L 29.558594 13.726562 L 29.558594 30.421875 L 12.863281 30.421875 Z M 12.863281 13.726562 " clip-rule="nonzero"/></clipPath><clipPath id="9a72680594"><path d="M 0.898438 22.773438 C 0.898438 11.566406 9.984375 2.480469 21.191406 2.480469 C 32.402344 2.480469 41.488281 11.566406 41.488281 22.773438 C 41.488281 33.984375 32.402344 43.070312 21.191406 43.070312 C 9.984375 43.070312 0.898438 33.984375 0.898438 22.773438 " clip-rule="nonzero"/></clipPath><clipPath id="d16e453b07"><path d="M 22.835938 19.289062 L 28.246094 19.289062 L 28.246094 21.339844 L 22.835938 21.339844 Z M 22.835938 19.289062 " clip-rule="nonzero"/></clipPath><clipPath id="529e3fd98b"><path d="M 0.898438 22.773438 C 0.898438 11.566406 9.984375 2.480469 21.191406 2.480469 C 32.402344 2.480469 41.488281 11.566406 41.488281 22.773438 C 41.488281 33.984375 32.402344 43.070312 21.191406 43.070312 C 9.984375 43.070312 0.898438 33.984375 0.898438 22.773438 " clip-rule="nonzero"/></clipPath><clipPath id="15127592ed"><path d="M 20.316406 23.542969 L 25.460938 23.542969 L 25.460938 26.484375 L 20.316406 26.484375 Z M 20.316406 23.542969 " clip-rule="nonzero"/></clipPath><clipPath id="0293b4598d"><path d="M 0.898438 22.773438 C 0.898438 11.566406 9.984375 2.480469 21.191406 2.480469 C 32.402344 2.480469 41.488281 11.566406 41.488281 22.773438 C 41.488281 33.984375 32.402344 43.070312 21.191406 43.070312 C 9.984375 43.070312 0.898438 33.984375 0.898438 22.773438 " clip-rule="nonzero"/></clipPath><clipPath id="c27440af89"><path d="M 14.4375 19.289062 L 19.84375 19.289062 L 19.84375 21.339844 L 14.4375 21.339844 Z M 14.4375 19.289062 " clip-rule="nonzero"/></clipPath><clipPath id="322f07d1f4"><path d="M 0.898438 22.773438 C 0.898438 11.566406 9.984375 2.480469 21.191406 2.480469 C 32.402344 2.480469 41.488281 11.566406 41.488281 22.773438 C 41.488281 33.984375 32.402344 43.070312 21.191406 43.070312 C 9.984375 43.070312 0.898438 33.984375 0.898438 22.773438 " clip-rule="nonzero"/></clipPath><clipPath id="783fc779f2"><path d="M 26.511719 33.414062 L 32.339844 33.414062 L 32.339844 36.039062 L 26.511719 36.039062 Z M 26.511719 33.414062 " clip-rule="nonzero"/></clipPath><clipPath id="5660a2ef40"><path d="M 0.898438 22.773438 C 0.898438 11.566406 9.984375 2.480469 21.191406 2.480469 C 32.402344 2.480469 41.488281 11.566406 41.488281 22.773438 C 41.488281 33.984375 32.402344 43.070312 21.191406 43.070312 C 9.984375 43.070312 0.898438 33.984375 0.898438 22.773438 " clip-rule="nonzero"/></clipPath><clipPath id="39c4177716"><path d="M 10.289062 33.414062 L 16.171875 33.414062 L 16.171875 36.039062 L 10.289062 36.039062 Z M 10.289062 33.414062 " clip-rule="nonzero"/></clipPath><clipPath id="94fa4d7284"><path d="M 0.898438 22.773438 C 0.898438 11.566406 9.984375 2.480469 21.191406 2.480469 C 32.402344 2.480469 41.488281 11.566406 41.488281 22.773438 C 41.488281 33.984375 32.402344 43.070312 21.191406 43.070312 C 9.984375 43.070312 0.898438 33.984375 0.898438 22.773438 " clip-rule="nonzero"/></clipPath><clipPath id="16c3b8105e"><path d="M 14.332031 11.3125 L 28.085938 11.3125 L 28.085938 14.304688 L 14.332031 14.304688 Z M 14.332031 11.3125 " clip-rule="nonzero"/></clipPath><clipPath id="c69c94522b"><path d="M 0.898438 22.773438 C 0.898438 11.566406 9.984375 2.480469 21.191406 2.480469 C 32.402344 2.480469 41.488281 11.566406 41.488281 22.773438 C 41.488281 33.984375 32.402344 43.070312 21.191406 43.070312 C 9.984375 43.070312 0.898438 33.984375 0.898438 22.773438 " clip-rule="nonzero"/></clipPath><clipPath id="fba6205e1d"><path d="M 15.226562 27.007812 L 27.195312 27.007812 L 27.195312 29.894531 L 15.226562 29.894531 Z M 15.226562 27.007812 " clip-rule="nonzero"/></clipPath><clipPath id="0828314bfe"><path d="M 0.898438 22.773438 C 0.898438 11.566406 9.984375 2.480469 21.191406 2.480469 C 32.402344 2.480469 41.488281 11.566406 41.488281 22.773438 C 41.488281 33.984375 32.402344 43.070312 21.191406 43.070312 C 9.984375 43.070312 0.898438 33.984375 0.898438 22.773438 " clip-rule="nonzero"/></clipPath><clipPath id="194d032b3c"><path d="M 15.75 14.460938 L 26.773438 14.460938 L 26.773438 17.925781 L 15.75 17.925781 Z M 15.75 14.460938 " clip-rule="nonzero"/></clipPath><clipPath id="4fd6560e26"><path d="M 0.898438 22.773438 C 0.898438 11.566406 9.984375 2.480469 21.191406 2.480469 C 32.402344 2.480469 41.488281 11.566406 41.488281 22.773438 C 41.488281 33.984375 32.402344 43.070312 21.191406 43.070312 C 9.984375 43.070312 0.898438 33.984375 0.898438 22.773438 " clip-rule="nonzero"/></clipPath><clipPath id="7409a88b9c"><path d="M 31.34375 17.769531 L 36.328125 17.769531 L 36.328125 26.378906 L 31.34375 26.378906 Z M 31.34375 17.769531 " clip-rule="nonzero"/></clipPath><clipPath id="ef0f25bc5f"><path d="M 0.898438 22.773438 C 0.898438 11.566406 9.984375 2.480469 21.191406 2.480469 C 32.402344 2.480469 41.488281 11.566406 41.488281 22.773438 C 41.488281 33.984375 32.402344 43.070312 21.191406 43.070312 C 9.984375 43.070312 0.898438 33.984375 0.898438 22.773438 " clip-rule="nonzero"/></clipPath><clipPath id="ba9785df88"><path d="M 32.234375 18.347656 L 35.542969 18.347656 L 35.542969 21.285156 L 32.234375 21.285156 Z M 32.234375 18.347656 " clip-rule="nonzero"/></clipPath><clipPath id="8fb5ff242f"><path d="M 0.898438 22.773438 C 0.898438 11.566406 9.984375 2.480469 21.191406 2.480469 C 32.402344 2.480469 41.488281 11.566406 41.488281 22.773438 C 41.488281 33.984375 32.402344 43.070312 21.191406 43.070312 C 9.984375 43.070312 0.898438 33.984375 0.898438 22.773438 " clip-rule="nonzero"/></clipPath><clipPath id="a80a466ec7"><path d="M 32.234375 26.0625 L 33.601562 26.0625 L 33.601562 26.378906 L 32.234375 26.378906 Z M 32.234375 26.0625 " clip-rule="nonzero"/></clipPath><clipPath id="34384cc4c3"><path d="M 0.898438 22.773438 C 0.898438 11.566406 9.984375 2.480469 21.191406 2.480469 C 32.402344 2.480469 41.488281 11.566406 41.488281 22.773438 C 41.488281 33.984375 32.402344 43.070312 21.191406 43.070312 C 9.984375 43.070312 0.898438 33.984375 0.898438 22.773438 " clip-rule="nonzero"/></clipPath><clipPath id="3eb2bd6e2a"><path d="M 31.34375 18.609375 L 35.910156 18.609375 L 35.910156 26.378906 L 31.34375 26.378906 Z M 31.34375 18.609375 " clip-rule="nonzero"/></clipPath><clipPath id="071025ce86"><path d="M 0.898438 22.773438 C 0.898438 11.566406 9.984375 2.480469 21.191406 2.480469 C 32.402344 2.480469 41.488281 11.566406 41.488281 22.773438 C 41.488281 33.984375 32.402344 43.070312 21.191406 43.070312 C 9.984375 43.070312 0.898438 33.984375 0.898438 22.773438 " clip-rule="nonzero"/></clipPath><clipPath id="6c853910e0"><path d="M 6 17.769531 L 11 17.769531 L 11 26.378906 L 6 26.378906 Z M 6 17.769531 " clip-rule="nonzero"/></clipPath><clipPath id="c76ae16fe1"><path d="M 0.898438 22.773438 C 0.898438 11.566406 9.984375 2.480469 21.191406 2.480469 C 32.402344 2.480469 41.488281 11.566406 41.488281 22.773438 C 41.488281 33.984375 32.402344 43.070312 21.191406 43.070312 C 9.984375 43.070312 0.898438 33.984375 0.898438 22.773438 " clip-rule="nonzero"/></clipPath><clipPath id="01d5d4077f"><path d="M 6.824219 18.347656 L 10.132812 18.347656 L 10.132812 21.285156 L 6.824219 21.285156 Z M 6.824219 18.347656 " clip-rule="nonzero"/></clipPath><clipPath id="9d78080a1f"><path d="M 0.898438 22.773438 C 0.898438 11.566406 9.984375 2.480469 21.191406 2.480469 C 32.402344 2.480469 41.488281 11.566406 41.488281 22.773438 C 41.488281 33.984375 32.402344 43.070312 21.191406 43.070312 C 9.984375 43.070312 0.898438 33.984375 0.898438 22.773438 " clip-rule="nonzero"/></clipPath><clipPath id="fdffc677d0"><path d="M 10.449219 26.324219 L 10.550781 26.324219 L 10.550781 26.378906 L 10.449219 26.378906 Z M 10.449219 26.324219 " clip-rule="nonzero"/></clipPath><clipPath id="b83b03947f"><path d="M 0.898438 22.773438 C 0.898438 11.566406 9.984375 2.480469 21.191406 2.480469 C 32.402344 2.480469 41.488281 11.566406 41.488281 22.773438 C 41.488281 33.984375 32.402344 43.070312 21.191406 43.070312 C 9.984375 43.070312 0.898438 33.984375 0.898438 22.773438 " clip-rule="nonzero"/></clipPath><clipPath id="d7329da0fa"><path d="M 8.765625 26.0625 L 10.132812 26.0625 L 10.132812 26.378906 L 8.765625 26.378906 Z M 8.765625 26.0625 " clip-rule="nonzero"/></clipPath><clipPath id="34d3cdb535"><path d="M 0.898438 22.773438 C 0.898438 11.566406 9.984375 2.480469 21.191406 2.480469 C 32.402344 2.480469 41.488281 11.566406 41.488281 22.773438 C 41.488281 33.984375 32.402344 43.070312 21.191406 43.070312 C 9.984375 43.070312 0.898438 33.984375 0.898438 22.773438 " clip-rule="nonzero"/></clipPath><clipPath id="54ce1472d7"><path d="M 10.550781 25.117188 L 10.761719 25.117188 L 10.761719 26.378906 L 10.550781 26.378906 Z M 10.550781 25.117188 " clip-rule="nonzero"/></clipPath><clipPath id="c95089df3d"><path d="M 0.898438 22.773438 C 0.898438 11.566406 9.984375 2.480469 21.191406 2.480469 C 32.402344 2.480469 41.488281 11.566406 41.488281 22.773438 C 41.488281 33.984375 32.402344 43.070312 21.191406 43.070312 C 9.984375 43.070312 0.898438 33.984375 0.898438 22.773438 " clip-rule="nonzero"/></clipPath><clipPath id="97a644ab23"><path d="M 10.65625 18.609375 L 10.921875 18.609375 L 10.921875 20.289062 L 10.65625 20.289062 Z M 10.65625 18.609375 " clip-rule="nonzero"/></clipPath><clipPath id="e5bb53185d"><path d="M 0.898438 22.773438 C 0.898438 11.566406 9.984375 2.480469 21.191406 2.480469 C 32.402344 2.480469 41.488281 11.566406 41.488281 22.773438 C 41.488281 33.984375 32.402344 43.070312 21.191406 43.070312 C 9.984375 43.070312 0.898438 33.984375 0.898438 22.773438 " clip-rule="nonzero"/></clipPath><clipPath id="fdedfc8437"><path d="M 6.457031 18.609375 L 11 18.609375 L 11 26.378906 L 6.457031 26.378906 Z M 6.457031 18.609375 " clip-rule="nonzero"/></clipPath><clipPath id="117c0a2961"><path d="M 0.898438 22.773438 C 0.898438 11.566406 9.984375 2.480469 21.191406 2.480469 C 32.402344 2.480469 41.488281 11.566406 41.488281 22.773438 C 41.488281 33.984375 32.402344 43.070312 21.191406 43.070312 C 9.984375 43.070312 0.898438 33.984375 0.898438 22.773438 " clip-rule="nonzero"/></clipPath><clipPath id="9b19b422e8"><path d="M 0 2.019531 L 42 2.019531 L 42 44.019531 L 0 44.019531 Z M 0 2.019531 " clip-rule="nonzero"/></clipPath></defs><g clip-path="url(#afb9f0e257)"><path fill="#e4edff" d="M 0.898438 22.773438 C 0.898438 11.566406 9.984375 2.480469 21.191406 2.480469 C 32.402344 2.480469 41.488281 11.566406 41.488281 22.773438 C 41.488281 33.984375 32.402344 43.070312 21.191406 43.070312 C 9.984375 43.070312 0.898438 33.984375 0.898438 22.773438 " fill-opacity="1" fill-rule="nonzero"/></g><g clip-path="url(#2fe041a6af)"><g clip-path="url(#5c45e18795)"><path fill="#474ca8" d="M 19.414062 37.929688 C 19.414062 35.105469 17.125 32.8125 14.300781 32.8125 C 11.472656 32.8125 9.183594 35.105469 9.183594 37.929688 C 9.183594 40.753906 11.472656 43.042969 14.300781 43.042969 C 17.125 43.042969 19.414062 40.753906 19.414062 37.929688 " fill-opacity="1" fill-rule="nonzero"/></g></g><g clip-path="url(#4a8036a093)"><g clip-path="url(#cf31ae2866)"><path fill="#474ca8" d="M 23.144531 37.929688 C 23.144531 35.105469 25.4375 32.8125 28.261719 32.8125 C 31.085938 32.8125 33.375 35.105469 33.375 37.929688 C 33.375 40.753906 31.085938 43.042969 28.261719 43.042969 C 25.4375 43.042969 23.144531 40.753906 23.144531 37.929688 " fill-opacity="1" fill-rule="nonzero"/></g></g><g clip-path="url(#dc57182c20)"><g clip-path="url(#559126f313)"><path fill="#373a98" d="M 29.421875 41.332031 C 28.476562 38.921875 27.371094 36.671875 26.144531 34.925781 C 26.1875 34.964844 27.535156 36.242188 28.519531 37.929688 C 28.972656 38.710938 29.441406 39.472656 29.816406 40.070312 C 30.039062 40.421875 30.421875 40.621094 30.808594 40.621094 C 30.828125 40.621094 30.851562 40.617188 30.875 40.617188 C 30.398438 40.875 29.914062 41.113281 29.421875 41.332031 M 31.859375 40.042969 C 32.625 39.285156 33.148438 38.289062 33.316406 37.171875 C 33.351562 37.417969 33.375 37.667969 33.375 37.921875 C 33.375 37.925781 33.375 37.925781 33.375 37.929688 C 33.375 37.980469 33.375 38.035156 33.375 38.085938 C 33.363281 38.4375 33.316406 38.78125 33.238281 39.109375 C 32.792969 39.441406 32.332031 39.75 31.859375 40.042969 " fill-opacity="1" fill-rule="nonzero"/></g></g><g clip-path="url(#e42d27051c)"><g clip-path="url(#aeb7d00131)"><path fill="#373a98" d="M 13 41.347656 C 12.457031 41.109375 11.929688 40.847656 11.414062 40.5625 C 11.523438 40.601562 11.644531 40.621094 11.761719 40.621094 C 12.144531 40.621094 12.527344 40.421875 12.746094 40.070312 C 13.121094 39.472656 13.589844 38.710938 14.042969 37.929688 C 14.699219 36.800781 15.515625 35.859375 15.996094 35.347656 C 14.882812 37.03125 13.871094 39.121094 13 41.347656 M 11.070312 40.371094 C 10.488281 40.035156 9.921875 39.667969 9.378906 39.28125 C 9.261719 38.847656 9.199219 38.398438 9.199219 37.929688 C 9.199219 37.671875 9.222656 37.421875 9.261719 37.171875 C 9.449219 38.457031 10.117188 39.582031 11.070312 40.371094 " fill-opacity="1" fill-rule="nonzero"/></g></g><g clip-path="url(#94478df1b5)"><g clip-path="url(#b56f9f4c2e)"><path fill="#70a2ff" d="M 32.777344 55.890625 C 32.777344 62.277344 27.601562 67.453125 21.214844 67.453125 C 14.828125 67.453125 9.648438 62.277344 9.648438 55.890625 C 9.648438 49.503906 14.828125 31.417969 21.214844 31.417969 C 27.601562 31.417969 32.777344 49.503906 32.777344 55.890625 " fill-opacity="1" fill-rule="nonzero"/></g></g><g clip-path="url(#80e606e6ce)"><g clip-path="url(#5bc3794dca)"><path fill="#474ca8" d="M 21.214844 34.832031 C 22.710938 34.832031 24.136719 34.539062 25.449219 34.019531 C 24.136719 32.417969 22.710938 31.417969 21.214844 31.417969 C 19.71875 31.417969 18.289062 32.417969 16.976562 34.019531 C 18.289062 34.539062 19.714844 34.832031 21.214844 34.832031 " fill-opacity="1" fill-rule="nonzero"/></g></g><g clip-path="url(#95ebbb79db)"><g clip-path="url(#d6eb7c0610)"><path fill="#84c4ff" d="M 21.214844 37.929688 C 19.558594 37.929688 17.957031 37.800781 16.410156 37.570312 C 16.082031 37.523438 15.90625 37.148438 16.078125 36.863281 C 16.410156 36.3125 16.75 35.796875 17.105469 35.332031 C 17.191406 35.214844 17.328125 35.15625 17.46875 35.15625 C 17.511719 35.15625 17.554688 35.160156 17.597656 35.171875 C 18.75 35.480469 19.960938 35.648438 21.214844 35.648438 C 22.464844 35.648438 23.675781 35.480469 24.832031 35.171875 C 24.875 35.160156 24.917969 35.15625 24.960938 35.15625 C 25.101562 35.15625 25.234375 35.214844 25.324219 35.332031 C 25.675781 35.796875 26.019531 36.3125 26.351562 36.863281 C 26.523438 37.148438 26.347656 37.523438 26.019531 37.570312 C 24.472656 37.800781 22.867188 37.929688 21.214844 37.929688 " fill-opacity="1" fill-rule="nonzero"/></g></g><g clip-path="url(#a883bbe8a6)"><g clip-path="url(#03330a3454)"><path fill="#70a2ff" d="M 9.648438 22.078125 C 9.648438 15.691406 14.828125 10.515625 21.214844 10.515625 C 27.601562 10.515625 32.777344 15.691406 32.777344 22.078125 C 32.777344 28.464844 27.601562 33.640625 21.214844 33.640625 C 14.828125 33.640625 9.648438 28.464844 9.648438 22.078125 " fill-opacity="1" fill-rule="nonzero"/></g></g><g clip-path="url(#f833b8943a)"><g clip-path="url(#e9b3fdb537)"><path fill="#577ce6" d="M 21.214844 33.640625 C 16.339844 33.640625 12.171875 30.628906 10.46875 26.363281 C 10.496094 26.363281 10.523438 26.363281 10.546875 26.363281 C 10.550781 26.359375 10.550781 26.355469 10.550781 26.347656 C 10.550781 26.347656 10.550781 26.34375 10.550781 26.339844 C 10.554688 26.339844 10.554688 26.335938 10.554688 26.332031 C 10.554688 26.328125 10.554688 26.328125 10.554688 26.324219 C 10.554688 26.320312 10.558594 26.320312 10.558594 26.316406 C 10.558594 26.3125 10.558594 26.308594 10.558594 26.308594 C 10.558594 26.304688 10.558594 26.300781 10.5625 26.300781 C 10.5625 26.296875 10.5625 26.292969 10.5625 26.289062 C 10.5625 26.289062 10.5625 26.285156 10.5625 26.285156 C 10.566406 26.28125 10.566406 26.277344 10.566406 26.273438 C 10.566406 26.273438 10.566406 26.269531 10.566406 26.269531 C 10.566406 26.265625 10.570312 26.261719 10.570312 26.257812 C 10.570312 26.253906 10.570312 26.253906 10.570312 26.253906 C 10.570312 26.25 10.570312 26.246094 10.574219 26.242188 C 10.574219 26.238281 10.574219 26.238281 10.574219 26.234375 C 10.574219 26.230469 10.574219 26.226562 10.578125 26.222656 C 10.578125 26.222656 10.578125 26.222656 10.578125 26.21875 C 10.578125 26.214844 10.578125 26.210938 10.578125 26.207031 C 10.578125 26.207031 10.578125 26.207031 10.582031 26.203125 C 10.582031 26.199219 10.582031 26.195312 10.582031 26.191406 C 10.582031 26.191406 10.582031 26.191406 10.582031 26.1875 C 10.585938 26.183594 10.585938 26.179688 10.585938 26.175781 C 10.644531 25.886719 10.695312 25.601562 10.738281 25.3125 C 10.738281 25.308594 10.738281 25.304688 10.738281 25.300781 C 10.746094 25.253906 10.753906 25.210938 10.761719 25.167969 C 10.761719 25.167969 10.761719 25.167969 10.761719 25.164062 C 10.761719 25.164062 10.761719 25.160156 10.761719 25.160156 C 10.792969 24.941406 10.820312 24.722656 10.847656 24.503906 C 12.734375 28.324219 16.664062 30.953125 21.214844 30.953125 C 25.703125 30.953125 29.59375 28.394531 31.507812 24.652344 C 31.578125 25.226562 31.671875 25.796875 31.789062 26.363281 C 31.84375 26.363281 31.902344 26.363281 31.957031 26.363281 C 30.253906 30.628906 26.085938 33.640625 21.214844 33.640625 " fill-opacity="1" fill-rule="nonzero"/></g></g><g clip-path="url(#840ae9c6f5)"><g clip-path="url(#1ea3ca6587)"><path fill="#474ca8" d="M 16.847656 43.042969 C 16.847656 40.632812 18.804688 38.679688 21.214844 38.679688 C 23.625 38.679688 25.578125 40.632812 25.578125 43.042969 C 25.578125 45.457031 23.625 47.410156 21.214844 47.410156 C 18.804688 47.410156 16.847656 45.457031 16.847656 43.042969 " fill-opacity="1" fill-rule="nonzero"/></g></g><g clip-path="url(#46d240b464)"><g clip-path="url(#e637e3e70c)"><path fill="#42f9ff" d="M 17.570312 43.042969 C 17.570312 41.03125 19.199219 39.398438 21.214844 39.398438 C 23.226562 39.398438 24.859375 41.03125 24.859375 43.042969 C 24.859375 45.058594 23.226562 46.6875 21.214844 46.6875 C 19.199219 46.6875 17.570312 45.058594 17.570312 43.042969 " fill-opacity="1" fill-rule="nonzero"/></g></g><g clip-path="url(#0585dc90ff)"><g clip-path="url(#9a72680594)"><path fill="#474ca8" d="M 12.886719 22.078125 C 12.886719 17.480469 16.617188 13.753906 21.214844 13.753906 C 25.8125 13.753906 29.539062 17.480469 29.539062 22.078125 C 29.539062 26.675781 25.8125 30.402344 21.214844 30.402344 C 16.617188 30.402344 12.886719 26.675781 12.886719 22.078125 " fill-opacity="1" fill-rule="nonzero"/></g></g><g clip-path="url(#d16e453b07)"><g clip-path="url(#529e3fd98b)"><path fill="#42f9ff" d="M 28.214844 21.328125 C 26.320312 20.40625 24.679688 20.511719 22.875 21.328125 C 23.59375 18.679688 27.398438 18.597656 28.214844 21.328125 " fill-opacity="1" fill-rule="nonzero"/></g></g><g clip-path="url(#15127592ed)"><g clip-path="url(#0293b4598d)"><path fill="#42f9ff" d="M 20.332031 25.253906 C 22.417969 25.542969 23.945312 24.933594 25.410156 23.597656 C 25.546875 26.335938 21.957031 27.597656 20.332031 25.253906 " fill-opacity="1" fill-rule="nonzero"/></g></g><g clip-path="url(#c27440af89)"><g clip-path="url(#322f07d1f4)"><path fill="#42f9ff" d="M 19.800781 21.328125 C 17.910156 20.40625 16.269531 20.511719 14.460938 21.328125 C 15.183594 18.679688 18.988281 18.597656 19.800781 21.328125 " fill-opacity="1" fill-rule="nonzero"/></g></g><g clip-path="url(#783fc779f2)"><g clip-path="url(#5660a2ef40)"><path fill="#636cdf" d="M 31.878906 36.011719 C 31.824219 36.011719 31.769531 36.003906 31.714844 35.980469 C 30.617188 35.5625 29.367188 35.324219 28.042969 35.324219 C 27.875 35.324219 27.710938 35.335938 27.546875 35.34375 C 27.542969 35.34375 27.535156 35.34375 27.53125 35.34375 C 27.425781 35.34375 27.332031 35.292969 27.277344 35.203125 L 26.570312 34.015625 C 26.46875 33.84375 26.5625 33.625 26.757812 33.578125 C 27.167969 33.480469 27.597656 33.429688 28.042969 33.429688 C 29.6875 33.429688 31.167969 34.128906 32.207031 35.25 C 32.488281 35.554688 32.242188 36.011719 31.878906 36.011719 " fill-opacity="1" fill-rule="nonzero"/></g></g><g clip-path="url(#39c4177716)"><g clip-path="url(#94fa4d7284)"><path fill="#636cdf" d="M 10.773438 36.011719 C 10.414062 36.011719 10.167969 35.554688 10.449219 35.25 C 11.484375 34.128906 12.964844 33.429688 14.613281 33.429688 C 15.054688 33.429688 15.484375 33.480469 15.898438 33.578125 C 16.089844 33.625 16.183594 33.84375 16.082031 34.015625 L 15.375 35.203125 C 15.324219 35.292969 15.226562 35.34375 15.125 35.34375 C 15.117188 35.34375 15.113281 35.34375 15.105469 35.34375 C 14.941406 35.335938 14.78125 35.324219 14.613281 35.324219 C 13.285156 35.324219 12.035156 35.5625 10.941406 35.980469 C 10.882812 36.003906 10.828125 36.011719 10.773438 36.011719 " fill-opacity="1" fill-rule="nonzero"/></g></g><g clip-path="url(#16c3b8105e)"><g clip-path="url(#c69c94522b)"><path fill="#84c4ff" d="M 14.746094 14.285156 C 14.4375 14.285156 14.238281 13.871094 14.519531 13.644531 C 16.359375 12.1875 18.683594 11.3125 21.214844 11.3125 C 23.746094 11.3125 26.066406 12.1875 27.90625 13.644531 C 28.191406 13.871094 27.988281 14.285156 27.683594 14.285156 C 27.632812 14.285156 27.582031 14.273438 27.527344 14.246094 C 25.65625 13.394531 23.503906 12.90625 21.214844 12.90625 C 18.921875 12.90625 16.773438 13.394531 14.902344 14.246094 C 14.847656 14.273438 14.792969 14.285156 14.746094 14.285156 " fill-opacity="1" fill-rule="nonzero"/></g></g><g clip-path="url(#fba6205e1d)"><g clip-path="url(#0828314bfe)"><path fill="#373a98" d="M 21.214844 29.894531 C 18.910156 29.894531 16.828125 28.953125 15.324219 27.441406 C 15.164062 27.28125 15.300781 27.039062 15.492188 27.039062 C 15.523438 27.039062 15.554688 27.042969 15.585938 27.058594 C 17.246094 27.746094 19.164062 28.140625 21.214844 28.140625 C 23.261719 28.140625 25.179688 27.746094 26.839844 27.058594 C 26.875 27.042969 26.90625 27.039062 26.9375 27.039062 C 27.128906 27.039062 27.261719 27.28125 27.105469 27.441406 C 25.597656 28.953125 23.519531 29.894531 21.214844 29.894531 " fill-opacity="1" fill-rule="nonzero"/></g></g><g clip-path="url(#194d032b3c)"><g clip-path="url(#4fd6560e26)"><path fill="#636cdf" d="M 26.175781 17.886719 C 26.109375 17.886719 26.039062 17.875 25.964844 17.847656 C 24.5625 17.296875 22.964844 16.984375 21.265625 16.984375 C 19.566406 16.984375 17.96875 17.296875 16.566406 17.847656 C 16.496094 17.875 16.421875 17.886719 16.355469 17.886719 C 15.890625 17.886719 15.578125 17.28125 15.941406 16.878906 C 17.269531 15.410156 19.160156 14.492188 21.265625 14.492188 C 23.371094 14.492188 25.261719 15.410156 26.589844 16.878906 C 26.953125 17.28125 26.640625 17.886719 26.175781 17.886719 " fill-opacity="1" fill-rule="nonzero"/></g></g><g clip-path="url(#7409a88b9c)"><g clip-path="url(#ef0f25bc5f)"><path fill="#474ca8" d="M 32.039062 26.363281 C 31.957031 26.363281 31.871094 26.363281 31.789062 26.363281 C 31.203125 23.535156 31.203125 20.621094 31.789062 17.792969 C 31.871094 17.792969 31.957031 17.792969 32.039062 17.792969 C 34.316406 17.785156 36.273438 19.710938 36.328125 22.078125 C 36.273438 24.445312 34.316406 26.367188 32.039062 26.363281 " fill-opacity="1" fill-rule="nonzero"/></g></g><g clip-path="url(#ba9785df88)"><g clip-path="url(#8fb5ff242f)"><path fill="#636cdf" d="M 35.121094 21.261719 C 35.074219 21.261719 35.023438 21.253906 34.972656 21.234375 C 34.25 20.941406 33.425781 20.703125 32.527344 20.527344 C 32.355469 20.492188 32.238281 20.355469 32.25 20.191406 C 32.289062 19.695312 32.339844 19.199219 32.40625 18.703125 C 32.433594 18.511719 32.617188 18.355469 32.800781 18.355469 C 32.832031 18.355469 32.863281 18.359375 32.890625 18.367188 C 34.058594 18.722656 35.019531 19.632812 35.480469 20.796875 C 35.570312 21.03125 35.363281 21.261719 35.121094 21.261719 " fill-opacity="1" fill-rule="nonzero"/></g></g><g clip-path="url(#a80a466ec7)"><g clip-path="url(#34384cc4c3)"><path fill="#b0b5e6" d="M 32.242188 26.359375 C 32.699219 26.335938 33.136719 26.238281 33.550781 26.074219 C 33.144531 26.238281 32.703125 26.339844 32.242188 26.359375 " fill-opacity="1" fill-rule="nonzero"/></g></g><g clip-path="url(#3eb2bd6e2a)"><g clip-path="url(#071025ce86)"><path fill="#373a98" d="M 32.046875 26.363281 C 32.042969 26.363281 32.042969 26.363281 32.039062 26.363281 C 32.011719 26.363281 31.984375 26.363281 31.957031 26.363281 C 31.902344 26.363281 31.84375 26.363281 31.789062 26.363281 C 31.71875 26.027344 31.65625 25.6875 31.605469 25.351562 C 31.59375 25.277344 31.582031 25.207031 31.570312 25.132812 C 31.257812 22.984375 31.277344 20.800781 31.628906 18.65625 C 31.59375 20.507812 31.859375 22.390625 32.296875 24.25 C 32.394531 24.664062 32.796875 24.953125 33.210938 24.953125 C 33.285156 24.953125 33.359375 24.945312 33.429688 24.925781 C 34.230469 24.71875 35.359375 24.371094 35.859375 23.925781 C 35.34375 24.90625 34.539062 25.679688 33.550781 26.074219 C 33.136719 26.238281 32.699219 26.335938 32.242188 26.359375 C 32.175781 26.363281 32.113281 26.363281 32.046875 26.363281 " fill-opacity="1" fill-rule="nonzero"/></g></g><g clip-path="url(#6c853910e0)"><g clip-path="url(#c76ae16fe1)"><path fill="#474ca8" d="M 10.296875 26.363281 C 10.378906 26.363281 10.464844 26.363281 10.546875 26.363281 C 11.132812 23.535156 11.132812 20.621094 10.546875 17.792969 C 10.464844 17.792969 10.378906 17.792969 10.296875 17.792969 C 8.019531 17.785156 6.0625 19.710938 6.007812 22.078125 C 6.0625 24.445312 8.019531 26.367188 10.296875 26.363281 " fill-opacity="1" fill-rule="nonzero"/></g></g><g clip-path="url(#01d5d4077f)"><g clip-path="url(#9d78080a1f)"><path fill="#636cdf" d="M 7.214844 21.261719 C 6.972656 21.261719 6.765625 21.03125 6.855469 20.796875 C 7.316406 19.632812 8.277344 18.722656 9.445312 18.367188 C 9.472656 18.359375 9.503906 18.355469 9.535156 18.355469 C 9.71875 18.355469 9.902344 18.511719 9.929688 18.703125 C 9.996094 19.199219 10.046875 19.695312 10.085938 20.191406 C 10.097656 20.355469 9.980469 20.492188 9.808594 20.527344 C 8.910156 20.703125 8.085938 20.941406 7.363281 21.234375 C 7.3125 21.253906 7.261719 21.261719 7.214844 21.261719 " fill-opacity="1" fill-rule="nonzero"/></g></g><g clip-path="url(#fdffc677d0)"><g clip-path="url(#b83b03947f)"><path fill="#435fcf" d="M 10.546875 26.363281 C 10.523438 26.363281 10.496094 26.363281 10.46875 26.363281 C 10.496094 26.363281 10.523438 26.363281 10.546875 26.363281 C 10.546875 26.359375 10.550781 26.351562 10.550781 26.347656 C 10.550781 26.355469 10.550781 26.359375 10.546875 26.363281 " fill-opacity="1" fill-rule="nonzero"/></g></g><g clip-path="url(#d7329da0fa)"><g clip-path="url(#34d3cdb535)"><path fill="#b0b5e6" d="M 10.09375 26.359375 C 9.632812 26.339844 9.195312 26.238281 8.785156 26.074219 C 9.199219 26.238281 9.640625 26.335938 10.09375 26.359375 " fill-opacity="1" fill-rule="nonzero"/></g></g><g clip-path="url(#54ce1472d7)"><g clip-path="url(#c95089df3d)"><path fill="#435fcf" d="M 10.550781 26.339844 C 10.554688 26.339844 10.554688 26.335938 10.554688 26.332031 C 10.554688 26.335938 10.554688 26.339844 10.550781 26.339844 M 10.554688 26.324219 C 10.554688 26.320312 10.558594 26.320312 10.558594 26.316406 C 10.558594 26.320312 10.554688 26.320312 10.554688 26.324219 M 10.558594 26.308594 C 10.558594 26.304688 10.558594 26.300781 10.5625 26.300781 C 10.558594 26.300781 10.558594 26.304688 10.558594 26.308594 M 10.5625 26.289062 C 10.5625 26.289062 10.5625 26.285156 10.5625 26.285156 C 10.5625 26.285156 10.5625 26.289062 10.5625 26.289062 M 10.566406 26.273438 C 10.566406 26.273438 10.566406 26.269531 10.566406 26.269531 C 10.566406 26.269531 10.566406 26.273438 10.566406 26.273438 M 10.570312 26.257812 C 10.570312 26.253906 10.570312 26.253906 10.570312 26.253906 C 10.570312 26.253906 10.570312 26.253906 10.570312 26.257812 M 10.574219 26.242188 C 10.574219 26.238281 10.574219 26.238281 10.574219 26.234375 C 10.574219 26.238281 10.574219 26.238281 10.574219 26.242188 M 10.578125 26.222656 C 10.578125 26.222656 10.578125 26.222656 10.578125 26.21875 C 10.578125 26.222656 10.578125 26.222656 10.578125 26.222656 M 10.578125 26.207031 C 10.578125 26.207031 10.578125 26.207031 10.582031 26.203125 C 10.578125 26.207031 10.578125 26.207031 10.578125 26.207031 M 10.582031 26.191406 C 10.582031 26.191406 10.582031 26.191406 10.582031 26.1875 C 10.582031 26.191406 10.582031 26.191406 10.582031 26.191406 M 10.585938 26.175781 L 10.585938 26.175781 M 10.738281 25.3125 C 10.738281 25.308594 10.738281 25.304688 10.738281 25.300781 C 10.738281 25.304688 10.738281 25.308594 10.738281 25.3125 M 10.738281 25.300781 C 10.746094 25.253906 10.753906 25.210938 10.761719 25.167969 C 10.753906 25.210938 10.746094 25.253906 10.738281 25.300781 M 10.761719 25.164062 C 10.761719 25.164062 10.761719 25.160156 10.761719 25.160156 C 10.761719 25.160156 10.761719 25.164062 10.761719 25.164062 " fill-opacity="1" fill-rule="nonzero"/></g></g><g clip-path="url(#97a644ab23)"><g clip-path="url(#e5bb53185d)"><path fill="#577ce6" d="M 10.910156 20.269531 L 10.910156 20.269531 M 10.90625 20.222656 C 10.90625 20.21875 10.90625 20.21875 10.90625 20.21875 C 10.90625 20.21875 10.90625 20.21875 10.90625 20.222656 M 10.902344 20.207031 L 10.902344 20.207031 M 10.902344 20.183594 C 10.902344 20.183594 10.902344 20.183594 10.902344 20.179688 C 10.902344 20.183594 10.902344 20.183594 10.902344 20.183594 M 10.902344 20.171875 C 10.902344 20.171875 10.902344 20.167969 10.898438 20.167969 C 10.902344 20.167969 10.902344 20.171875 10.902344 20.171875 M 10.898438 20.15625 C 10.898438 20.15625 10.898438 20.152344 10.898438 20.152344 C 10.898438 20.152344 10.898438 20.15625 10.898438 20.15625 M 10.898438 20.136719 C 10.898438 20.136719 10.898438 20.132812 10.898438 20.128906 C 10.898438 20.132812 10.898438 20.136719 10.898438 20.136719 M 10.894531 20.121094 C 10.894531 20.121094 10.894531 20.117188 10.894531 20.113281 C 10.894531 20.117188 10.894531 20.121094 10.894531 20.121094 M 10.894531 20.109375 C 10.894531 20.105469 10.894531 20.101562 10.894531 20.097656 C 10.894531 20.101562 10.894531 20.105469 10.894531 20.109375 M 10.894531 20.09375 C 10.894531 20.089844 10.894531 20.082031 10.890625 20.078125 C 10.894531 20.082031 10.894531 20.089844 10.894531 20.09375 M 10.890625 20.074219 C 10.890625 20.070312 10.890625 20.066406 10.890625 20.0625 C 10.890625 20.066406 10.890625 20.070312 10.890625 20.074219 M 10.890625 20.058594 C 10.890625 20.054688 10.890625 20.050781 10.890625 20.046875 C 10.890625 20.050781 10.890625 20.054688 10.890625 20.058594 M 10.890625 20.042969 C 10.886719 20.039062 10.886719 20.03125 10.886719 20.027344 C 10.886719 20.03125 10.886719 20.039062 10.890625 20.042969 M 10.886719 20.027344 C 10.886719 20.019531 10.886719 20.015625 10.886719 20.011719 C 10.886719 20.015625 10.886719 20.019531 10.886719 20.027344 M 10.886719 20.007812 C 10.882812 19.992188 10.882812 19.976562 10.878906 19.960938 C 10.882812 19.976562 10.882812 19.992188 10.886719 20.007812 M 10.878906 19.960938 C 10.835938 19.523438 10.777344 19.089844 10.707031 18.65625 C 10.777344 19.089844 10.835938 19.523438 10.878906 19.960938 " fill-opacity="1" fill-rule="nonzero"/></g></g><g clip-path="url(#fdedfc8437)"><g clip-path="url(#117c0a2961)"><path fill="#373a98" d="M 10.289062 26.363281 C 10.226562 26.363281 10.160156 26.363281 10.09375 26.359375 C 9.640625 26.335938 9.199219 26.238281 8.785156 26.074219 C 7.796875 25.679688 6.992188 24.90625 6.476562 23.925781 C 6.976562 24.371094 8.105469 24.71875 8.90625 24.925781 C 8.976562 24.945312 9.050781 24.953125 9.125 24.953125 C 9.539062 24.953125 9.941406 24.664062 10.039062 24.25 C 10.476562 22.390625 10.742188 20.507812 10.707031 18.65625 C 10.777344 19.089844 10.835938 19.523438 10.878906 19.960938 C 10.882812 19.976562 10.882812 19.992188 10.886719 20.007812 C 10.886719 20.011719 10.886719 20.011719 10.886719 20.011719 C 10.886719 20.015625 10.886719 20.019531 10.886719 20.027344 C 10.886719 20.03125 10.886719 20.039062 10.890625 20.042969 C 10.890625 20.042969 10.890625 20.042969 10.890625 20.046875 C 10.890625 20.050781 10.890625 20.054688 10.890625 20.058594 C 10.890625 20.058594 10.890625 20.0625 10.890625 20.0625 C 10.890625 20.066406 10.890625 20.070312 10.890625 20.074219 C 10.890625 20.074219 10.890625 20.078125 10.890625 20.078125 C 10.894531 20.082031 10.894531 20.089844 10.894531 20.09375 C 10.894531 20.09375 10.894531 20.097656 10.894531 20.097656 C 10.894531 20.101562 10.894531 20.105469 10.894531 20.109375 C 10.894531 20.109375 10.894531 20.113281 10.894531 20.113281 C 10.894531 20.117188 10.894531 20.121094 10.894531 20.121094 C 10.898438 20.125 10.898438 20.128906 10.898438 20.128906 C 10.898438 20.132812 10.898438 20.136719 10.898438 20.136719 C 10.898438 20.144531 10.898438 20.148438 10.898438 20.152344 C 10.898438 20.152344 10.898438 20.15625 10.898438 20.15625 C 10.898438 20.160156 10.898438 20.164062 10.898438 20.167969 C 10.902344 20.167969 10.902344 20.171875 10.902344 20.171875 C 10.902344 20.175781 10.902344 20.179688 10.902344 20.179688 C 10.902344 20.183594 10.902344 20.183594 10.902344 20.183594 C 10.902344 20.191406 10.902344 20.199219 10.902344 20.207031 C 10.90625 20.210938 10.90625 20.214844 10.90625 20.21875 C 10.90625 20.21875 10.90625 20.21875 10.90625 20.222656 C 10.90625 20.238281 10.90625 20.253906 10.910156 20.269531 C 11.046875 21.890625 11 23.523438 10.765625 25.132812 C 10.765625 25.140625 10.761719 25.152344 10.761719 25.160156 C 10.761719 25.160156 10.761719 25.164062 10.761719 25.164062 C 10.761719 25.167969 10.761719 25.167969 10.761719 25.167969 C 10.753906 25.210938 10.746094 25.253906 10.738281 25.300781 C 10.738281 25.304688 10.738281 25.308594 10.738281 25.3125 C 10.734375 25.324219 10.734375 25.335938 10.730469 25.351562 C 10.6875 25.625 10.640625 25.898438 10.585938 26.175781 C 10.585938 26.179688 10.585938 26.183594 10.582031 26.1875 C 10.582031 26.191406 10.582031 26.191406 10.582031 26.191406 C 10.582031 26.195312 10.582031 26.199219 10.582031 26.203125 C 10.578125 26.207031 10.578125 26.207031 10.578125 26.207031 C 10.578125 26.210938 10.578125 26.214844 10.578125 26.21875 C 10.578125 26.222656 10.578125 26.222656 10.578125 26.222656 C 10.574219 26.226562 10.574219 26.230469 10.574219 26.234375 C 10.574219 26.238281 10.574219 26.238281 10.574219 26.242188 C 10.570312 26.246094 10.570312 26.25 10.570312 26.253906 C 10.570312 26.253906 10.570312 26.253906 10.570312 26.257812 C 10.570312 26.261719 10.566406 26.265625 10.566406 26.269531 C 10.566406 26.269531 10.566406 26.273438 10.566406 26.273438 C 10.566406 26.277344 10.566406 26.28125 10.5625 26.285156 C 10.5625 26.285156 10.5625 26.289062 10.5625 26.289062 C 10.5625 26.292969 10.5625 26.296875 10.5625 26.300781 C 10.558594 26.300781 10.558594 26.304688 10.558594 26.308594 C 10.558594 26.308594 10.558594 26.3125 10.558594 26.316406 C 10.558594 26.320312 10.554688 26.320312 10.554688 26.324219 C 10.554688 26.328125 10.554688 26.328125 10.554688 26.332031 C 10.554688 26.335938 10.554688 26.339844 10.550781 26.339844 C 10.550781 26.34375 10.550781 26.347656 10.550781 26.347656 C 10.550781 26.351562 10.546875 26.359375 10.546875 26.363281 C 10.523438 26.363281 10.496094 26.363281 10.46875 26.363281 C 10.414062 26.363281 10.355469 26.363281 10.296875 26.363281 C 10.292969 26.363281 10.292969 26.363281 10.289062 26.363281 " fill-opacity="1" fill-rule="nonzero"/></g></g><g clip-path="url(#9b19b422e8)"><path fill="#e4edff" d="M 21 3.425781 C 10.199219 3.425781 1.410156 12.214844 1.410156 23.019531 C 1.410156 33.820312 10.199219 42.609375 21 42.609375 C 31.800781 42.609375 40.589844 33.820312 40.589844 23.019531 C 40.589844 12.214844 31.800781 3.425781 21 3.425781 Z M 21 44.019531 C 9.421875 44.019531 0 34.597656 0 23.019531 C 0 11.4375 9.421875 2.019531 21 2.019531 C 32.578125 2.019531 42 11.4375 42 23.019531 C 42 34.597656 32.578125 44.019531 21 44.019531 " fill-opacity="1" fill-rule="nonzero"/></g></svg>